<?xml version="1.0" encoding="UTF-8" standalone="no"?>
<svg
   xmlns:dc="http://purl.org/dc/elements/1.1/"
   xmlns:cc="http://creativecommons.org/ns#"
   xmlns:rdf="http://www.w3.org/1999/02/22-rdf-syntax-ns#"
   xmlns:svg="http://www.w3.org/2000/svg"
   xmlns="http://www.w3.org/2000/svg"
   id="svg904"
   version="1.1"
   viewBox="0 0 9.260416 9.2604141"
   height="9.2604141mm"
   width="9.260416mm">
  <defs
     id="defs898" />
  <metadata
     id="metadata901">
    <rdf:RDF>
      <cc:Work
         rdf:about="">
        <dc:format>image/svg+xml</dc:format>
        <dc:type
           rdf:resource="http://purl.org/dc/dcmitype/StillImage" />
        <dc:title></dc:title>
      </cc:Work>
    </rdf:RDF>
  </metadata>
  <g
     transform="translate(-70.629157,-155.71737)"
     id="layer1">
    <path
       style="display:inline;opacity:1;fill:#333333;fill-opacity:1;stroke:none;stroke-width:0.15239812;stroke-linejoin:round;stroke-miterlimit:4;stroke-dasharray:none;stroke-dashoffset:0.35527554;stroke-opacity:1;paint-order:stroke fill markers"
       id="path12"
       d="m 79.889573,160.34756 a 4.6302074,4.6302108 0 0 1 -4.60128,4.63013 4.6302074,4.6302108 0 0 1 -4.658775,-4.57227 4.6302074,4.6302108 0 0 1 4.543064,-4.68724 4.6302074,4.6302108 0 0 1 4.715544,4.51368" />
    <path
       d="m 79.185358,160.34757 a 3.9259934,3.8343935 0 0 1 -3.901464,3.83432 3.9259934,3.8343935 0 0 1 -3.950216,-3.7864 3.9259934,3.8343935 0 0 1 3.852103,-3.88164 3.9259934,3.8343935 0 0 1 3.99835,3.73791"
       id="path882"
       style="display:inline;opacity:1;fill:#ffffff;fill-opacity:1;stroke:none;stroke-width:0.12770329;stroke-linejoin:round;stroke-miterlimit:4;stroke-dasharray:none;stroke-dashoffset:0.35527554;stroke-opacity:1;paint-order:stroke fill markers" />
    <g
       id="g846"
       transform="matrix(0.11128019,0,0,0.1162644,68.771281,139.16669)"
       style="display:inline;fill:#ff2a2a;stroke:#c8b7b7">
      <path
         style="opacity:1;fill:#ffffff;fill-opacity:1;stroke:#ffffff;stroke-width:1.15448833;stroke-linejoin:round;stroke-miterlimit:4;stroke-dasharray:none;stroke-dashoffset:0.35527554;stroke-opacity:1;paint-order:stroke fill markers"
         d="m 40.708727,194.71085 c -5.533166,-5.95613 -10.060302,-10.94201 -10.060302,-11.07975 0,-0.28436 6.67315,-6.32468 6.805677,-6.16026 0.04734,0.0587 2.294226,3.38934 4.993081,7.40134 5.772649,8.58139 6.635756,9.80768 6.91373,9.82293 0.336339,0.0184 3.774712,-4.54542 15.457661,-20.51744 6.053295,-8.2756 11.117079,-15.16675 11.252849,-15.31364 0.280319,-0.30329 1.403842,0.6976 6.430547,5.72874 l 3.457688,3.46074 -17.497976,18.74334 c -9.623889,10.30883 -17.541779,18.74334 -17.595314,18.74334 -0.05354,0 -4.624472,-4.8732 -10.157641,-10.82934 z"
         id="path880" />
    </g>
  </g>
</svg>
